Patient4_TMGait_0pt2_03_left_17_GRF.mot
version=1
nRows=51
nColumns=19
inDegrees=no
endheader
time	F1x	F1y	F1z	M1x	M1y	M1z	F2x	F2y	F2z	M2x	M2y	M2z	EC1x	EC1y	EC1z	EC2x	EC2y	EC2z
35.42	-7.7943	8.4864	1.1946	-2.5963	-3.9081	10.9596	-7.0507	882.254	-47.2147	319.6835	51.5403	904.8429	-0.0592	0.0182	-0.0073	-0.0462	0.0165	0.9585
35.4412	-5.3287	5.7737	0.89186	-1.7699	-2.7502	7.4148	-9.2378	886.4561	-46.5622	320.5957	51.3552	908.6447	-0.0592	0.0182	-0.0073	-0.0462	0.0165	0.9585
35.4624	-3.2291	3.4606	0.62112	-1.0599	-1.7528	4.4073	-11.4742	885.7509	-45.5594	319.6764	50.7415	907.3981	-0.0592	0.0182	-0.0073	-0.0462	0.0165	0.9585
35.4836	-1.6271	1.6895	0.40251	-0.51236	-0.98156	2.1155	-13.3478	878.0988	-44.193	316.2223	49.5558	898.9673	-0.0592	0.0182	-0.0073	-0.0462	0.0165	0.9585
35.5049	-0.52299	0.45297	0.24126	-0.12863	-0.44211	0.5253	-14.4642	862.8199	-42.4755	310.0227	47.7013	882.5519	-0.0592	0.0182	-0.0073	-0.0462	0.0165	0.9585
35.5261	0.15234	-0.33261	0.13518	0.11533	-0.10774	-0.4728	-14.5512	840.9611	-40.44	301.4913	45.149	859.1027	-0.0592	0.0182	-0.0073	-0.0462	0.0165	0.9585
35.5473	0.49477	-0.78531	0.077144	0.25573	0.062049	-1.0286	-13.5037	814.993	-38.1572	291.5494	41.9646	831.0492	-0.0592	0.0182	-0.0073	-0.0462	0.0165	0.9585
35.5685	0.60425	-1.0326	0.055299	0.33449	0.11309	-1.3102	-11.3774	788.0704	-35.7334	281.3507	38.3006	801.5713	-0.0592	0.0182	-0.0073	-0.0462	0.0165	0.9585
35.5897	0.56884	-1.1975	0.056025	0.39296	0.089726	-1.4763	-8.3777	763.2318	-33.3024	271.9891	34.3857	773.797	-0.0592	0.0182	-0.0073	-0.0462	0.0165	0.9585
35.6109	0.45841	-1.3881	0.068987	0.46604	0.029343	-1.658	-4.8368	742.8459	-31.0163	264.3006	30.5031	750.2358	-0.0592	0.0182	-0.0073	-0.0462	0.0165	0.9585
35.6321	0.32574	-1.6842	0.08467	0.57997	-0.038261	-1.9523	-1.1442	728.3356	-29.0262	258.7698	26.9451	732.4754	-0.0592	0.0182	-0.0073	-0.0462	0.0165	0.9585
35.6534	0.20972	-2.1342	0.093403	0.75077	-0.090523	-2.423	2.3493	720.1021	-27.4652	255.511	23.9671	721.0642	-0.0592	0.0182	-0.0073	-0.0462	0.0165	0.9585
35.6746	0.13819	-2.7442	0.085221	0.97905	-0.10744	-3.0849	5.4047	717.641	-26.4351	254.3141	21.7505	715.6027	-0.0592	0.0182	-0.0073	-0.0462	0.0165	0.9585
35.6958	0.13436	-3.4562	0.052685	1.2422	-0.071909	-3.8727	7.9073	719.7891	-25.9997	254.7377	20.3893	714.9878	-0.0592	0.0182	-0.0073	-0.0462	0.0165	0.9585
35.717	0.21776	-4.1257	-0.010898	1.4862	0.033003	-4.6212	9.8536	725.0511	-26.1868	256.2295	19.8918	717.7352	-0.0592	0.0182	-0.0073	-0.0462	0.0165	0.9585
35.7382	0.40454	-4.4967	-0.10945	1.6164	0.21888	-5.0461	11.3241	731.9345	-26.9783	258.2484	20.1839	722.322	-0.0592	0.0182	-0.0073	-0.0462	0.0165	0.9585
35.7594	0.70426	-4.1774	-0.24328	1.4911	0.48803	-4.7154	12.4325	739.1858	-28.314	260.3483	21.1358	727.4471	-0.0592	0.0182	-0.0073	-0.0462	0.0165	0.9585
35.7806	1.1127	-2.6303	-0.40204	0.91605	0.82648	-3.0297	13.2842	745.8708	-30.0875	262.2069	22.5812	732.1366	-0.0592	0.0182	-0.0073	-0.0462	0.0165	0.9585
35.8019	1.5974	0.81654	-0.55703	-0.35399	1.1912	0.76199	13.9582	751.3689	-32.1484	263.6215	24.3313	735.7432	-0.0592	0.0182	-0.0073	-0.0462	0.0165	0.9585
35.8231	2.0859	6.9131	-0.654	-2.5917	1.4981	7.4896	14.4987	755.276	-34.3173	264.4679	26.1896	737.8572	-0.0592	0.0182	-0.0073	-0.0462	0.0165	0.9585
35.8443	2.4518	16.3508	-0.61268	-6.0465	1.6156	17.9152	14.905	757.2036	-36.4055	264.6275	27.974	738.1041	-0.0592	0.0182	-0.0073	-0.0462	0.0165	0.9585
35.8655	2.497	29.5374	-0.3258	-10.8625	1.353	32.4922	15.1305	756.6004	-38.2352	263.9252	29.5354	735.9736	-0.0592	0.0182	-0.0073	-0.0462	0.0165	0.9585
35.8867	1.9594	46.2924	0.31596	-16.9671	0.4905	51.0246	15.107	752.7002	-39.6623	262.1089	30.7718	730.7549	-0.0592	0.0182	-0.0073	-0.0462	0.0165	0.9585
35.9079	0.65887	65.5151	1.3955	-23.9529	-1.1322	72.2909	14.7784	744.6544	-40.5926	258.8955	31.6307	721.6492	-0.0592	0.0182	-0.0073	-0.0462	0.0165	0.9585
35.9291	-1.1334	85.0999	2.8971	-31.0503	-3.3983	93.9266	14.1352	731.8626	-40.988	254.0855	32.0982	708.082	-0.0592	0.0182	-0.0073	-0.0462	0.0165	0.9585
35.9504	-2.8263	102.6518	4.5974	-37.3957	-5.8358	113.2109	13.2449	714.4482	-40.8915	247.7281	32.2049	690.1499	-0.0592	0.0182	-0.0073	-0.0462	0.0165	0.9585
35.9716	-4.0252	117.0089	6.1419	-42.5895	-7.9029	128.7973	12.2758	693.5436	-40.4384	240.2199	32.0273	668.8872	-0.0592	0.0182	-0.0073	-0.0462	0.0165	0.9585
35.9928	-4.6593	128.8708	7.3135	-46.908	-9.3374	141.4329	11.474	671.0758	-39.7951	232.2336	31.64	646.0753	-0.0592	0.0182	-0.0073	-0.0462	0.0165	0.9585
36.014	-4.8513	140.073	8.1385	-51.0283	-10.2229	153.1299	11.0712	649.1251	-39.0757	224.4946	31.0719	623.6534	-0.0592	0.0182	-0.0073	-0.0462	0.0165	0.9585
36.0352	-4.7647	152.5505	8.7784	-55.6523	-10.8095	166.0082	11.1836	629.1888	-38.3385	217.5232	30.3376	603.0413	-0.0592	0.0182	-0.0073	-0.0462	0.0165	0.9585
36.0564	-4.5306	167.5626	9.4138	-61.2296	-11.3568	181.455	11.7685	611.7372	-37.6312	211.4753	29.4945	584.7211	-0.0592	0.0182	-0.0073	-0.0462	0.0165	0.9585
36.0776	-4.2111	185.3729	10.1816	-67.8418	-12.0528	199.7801	12.6677	596.1844	-36.9956	206.1334	28.6321	568.1937	-0.0592	0.0182	-0.0073	-0.0462	0.0165	0.9585
36.0989	-3.8012	205.3818	11.1521	-75.2511	-12.9866	220.3672	13.6997	581.2323	-36.442	201.0318	27.8193	552.2935	-0.0592	0.0182	-0.0073	-0.0462	0.0165	0.9585
36.1201	-3.2763	226.5744	12.3367	-83.0645	-14.1691	242.1759	14.7316	565.3751	-35.9387	195.6329	27.0701	535.6558	-0.0592	0.0182	-0.0073	-0.0462	0.0165	0.9585
36.1413	-2.6359	248.0279	13.7026	-90.9194	-15.5701	264.2863	15.7063	547.3464	-35.4294	189.4833	26.3476	517.131	-0.0592	0.0182	-0.0073	-0.0462	0.0165	0.9585
36.1625	-1.9127	269.1804	15.1913	-98.5858	-17.1401	286.1664	16.6298	526.3565	-34.8448	182.2974	25.5821	496.0017	-0.0592	0.0182	-0.0073	-0.0462	0.0165	0.9585
36.1837	-1.175	289.8301	16.7622	-105.9695	-18.852	307.6613	17.537	502.1068	-34.1072	173.9651	24.6898	472.0046	-0.0592	0.0182	-0.0073	-0.0462	0.0165	0.9585
36.2049	-0.51391	310.0399	18.4035	-113.0801	-20.7052	328.881	18.4513	474.711	-33.1521	164.5232	23.6049	445.257	-0.0592	0.0182	-0.0073	-0.0462	0.0165	0.9585
36.2261	-0.031438	330.0604	20.1245	-120.0061	-22.7151	350.1095	19.3521	444.5961	-31.9444	154.121	22.3019	416.1585	-0.0592	0.0182	-0.0073	-0.0462	0.0165	0.9585
36.2474	0.18396	350.2962	21.9397	-126.9047	-24.8903	371.7427	20.1736	412.36	-30.4699	142.9684	20.7884	385.2656	-0.0592	0.0182	-0.0073	-0.0462	0.0165	0.9585
36.2686	0.088602	371.3085	23.8914	-134.0006	-27.2492	394.2833	20.809	378.6183	-28.7218	131.2817	19.0899	353.1483	-0.0592	0.0182	-0.0073	-0.0462	0.0165	0.9585
36.2898	-0.32373	393.8516	26.0655	-141.592	-29.8475	418.3977	21.1237	343.8922	-26.7025	119.2435	17.249	320.2919	-0.0592	0.0182	-0.0073	-0.0462	0.0165	0.9585
36.311	-1.0412	418.8942	28.5959	-150.0497	-32.7907	444.9694	20.9734	308.5631	-24.4287	106.9889	15.3252	287.0537	-0.0592	0.0182	-0.0073	-0.0462	0.0165	0.9585
36.3322	-2.0518	447.543	31.6499	-159.7812	-36.2264	475.0392	20.2288	272.9334	-21.9319	94.6263	13.3866	253.7128	-0.0592	0.0182	-0.0073	-0.0462	0.0165	0.9585
36.3534	-3.3625	480.8549	35.3838	-171.165	-40.3125	509.6388	18.8103	237.355	-19.2696	82.2836	11.5071	220.5812	-0.0592	0.0182	-0.0073	-0.0462	0.0165	0.9585
36.3746	-5.0017	519.5293	39.8814	-184.4452	-45.1563	549.4879	16.717	202.348	-16.53	70.1473	9.7641	188.1129	-0.0592	0.0182	-0.0073	-0.0462	0.0165	0.9585
36.3959	-7.0078	563.5498	45.0955	-199.6101	-50.744	594.6202	14.0435	168.6603	-13.8233	58.48	8.2294	156.9615	-0.0592	0.0182	-0.0073	-0.0462	0.0165	0.9585
36.4171	-9.3875	611.9727	50.8286	-216.3225	-56.8961	644.1268	10.9813	137.2039	-11.2662	47.5962	6.9494	127.9252	-0.0592	0.0182	-0.0073	-0.0462	0.0165	0.9585
36.4383	-12.0669	663.0128	56.7483	-233.9575	-63.264	696.2061	7.7888	108.8603	-8.9628	37.7968	5.9311	101.7693	-0.0592	0.0182	-0.0073	-0.0462	0.0165	0.9585
36.4595	-14.8678	714.3433	62.4399	-251.7151	-69.3773	748.4432	4.7215	84.2446	-6.9838	29.2896	5.1498	79.0211	-0.0592	0.0182	-0.0073	-0.0462	0.0165	0.9585
36.4807	-17.5269	763.4669	67.4873	-268.753	-74.7265	798.1834	1.9858	63.5922	-5.3542	22.1505	4.5591	59.8829	-0.0592	0.0182	-0.0073	-0.0462	0.0165	0.9585
